<svg width="2457" height="1085" viewBox="0 0 2457 1085" fill="none" xmlns="http://www.w3.org/2000/svg">
<path d="M423.366 521.354C416.174 523.951 409.38 527.067 403.137 530.703L212.966 641.036V342.425L403.137 232.093C447.819 206.152 520.778 206.121 565.765 232.093C610.753 258.034 610.998 300.229 566.286 326.17L454.429 391.068C433.618 403.138 423.274 419.026 423.366 434.884V521.354Z" fill="white"/>
<path d="M423.368 733.647C423.521 749.474 434.049 765.271 454.951 777.31C496.909 801.478 564.941 801.478 606.562 777.31L796.733 666.977V368.366L606.562 478.699C564.941 502.837 496.909 502.837 454.951 478.699C433.988 466.63 423.46 450.742 423.368 434.884V733.647Z" fill="white"/>
<path d="M2013.43 649.372C1989.76 635.622 1970.93 616.892 1956.97 593.304C1943.01 569.716 1936.01 544.019 1936.01 516.154C1936.01 488.288 1942.95 462.591 1956.73 439.003C1970.54 415.415 1989.3 396.746 2012.98 382.935C2036.66 369.186 2062.41 362.28 2090.37 362.28C2118.33 362.28 2144.12 369.186 2167.8 382.935C2191.45 396.685 2210.21 415.415 2224.05 439.003C2237.86 462.591 2244.76 488.318 2244.76 516.154C2244.76 543.989 2237.86 569.716 2224.05 593.304C2210.24 616.892 2191.48 635.592 2167.8 649.372C2144.12 663.121 2118.33 670.027 2090.37 670.027C2062.41 670.027 2037.05 663.121 2013.43 649.372ZM2142.1 605.006C2157.78 595.809 2170.24 583.282 2179.5 567.516C2188.73 551.75 2193.4 534.639 2193.4 516.184C2193.4 497.729 2188.79 480.618 2179.5 464.852C2170.24 449.086 2157.71 436.589 2141.86 427.331C2126.03 418.134 2108.86 413.49 2090.37 413.49C2071.89 413.49 2054.68 418.104 2038.86 427.331C2023.03 436.559 2010.5 449.056 2001.21 464.852C1991.92 480.618 1987.31 497.729 1987.31 516.184C1987.31 534.639 1991.92 551.75 2001.21 567.516C2010.44 583.282 2023 595.779 2038.86 605.006C2054.68 614.264 2072.01 618.848 2090.8 618.848C2109.59 618.848 2126.43 614.234 2142.07 605.006H2142.1Z" fill="white"/>
<path d="M1739.15 656.798C1728.03 647.998 1718.89 633.057 1711.77 612.005L1628.36 366.926H1685.28L1755.89 586.43C1759.31 596.391 1762.67 603.358 1765.94 607.33C1769.21 611.332 1773.43 613.288 1778.56 613.288C1783.7 613.288 1787.82 611.302 1790.97 607.33C1794.08 603.358 1797.38 596.391 1800.81 586.43L1871.42 366.926H1927.91L1845.36 612.005C1838.21 633.607 1829.31 648.67 1818.62 657.226C1807.93 665.75 1794.57 670.028 1778.62 670.028C1763.5 670.028 1750.39 665.628 1739.27 656.798H1739.15Z" fill="white"/>
<path d="M1135.05 362.25C1062.67 362.25 1004.06 420.732 1004.06 492.841V665.444H1055.85V492.841C1055.85 449.209 1091.33 413.887 1135.08 413.887C1178.83 413.887 1214.31 449.239 1214.31 492.841V665.444H1266.1V492.841C1266.1 420.732 1207.43 362.25 1135.11 362.25H1135.05Z" fill="white"/>
<path d="M1453.95 670.12C1526.33 670.12 1584.94 611.638 1584.94 539.529V366.926H1533.15V539.529C1533.15 583.161 1497.67 618.482 1453.92 618.482C1410.16 618.482 1374.69 583.131 1374.69 539.529V366.926H1322.9V539.529C1322.9 611.638 1381.56 670.12 1453.89 670.12H1453.95Z" fill="white"/>
</svg>
